<svg xmlns="http://www.w3.org/2000/svg" width="215" height="50" viewBox="0 0 215 50">
    <g fill="none" fill-rule="evenodd">
        <path fill="#0061AF" d="M204.632 12.077l-1.795-3.244h-5.362v6.673h5.26l1.897-3.429zM79.655 40.257l7.842-31.42 2.1 32.084h8.802L95.715 0H81.977L75.24 27.502 68.505 0H54.766L52.082 40.92h8.804l2.102-32.084 7.839 31.42h8.828zm102.593-24.751h4.638v13.25c0 6.962 1.753 12.156 9.45 12.156 2.784 0 5.08-.699 6.378-1.22V32.25c-4.598.86-6.836 1.15-6.836-4.98V.01l-8.992.003v8.82h-3.939l-.699 6.673zm-11.284 1.807c0-4.01 7.462-2.72 9.723-1.807l.697-6.671c-7.564-2.341-19.292-.594-19.276 9.358-.155 9.817 14.3 8.478 14.3 13.15 0 4.93-11.327 2.404-13.79.907l-1.286 6.676c8.415 3.715 24.393 2.893 23.966-8.27-.146-10.826-14.334-8.91-14.334-13.343zm-19.238 3.471c0-8.708-11.75-8.825-11.664 0h11.664zm-11.731 6.736c.617 7.712 12.627 6.374 17.826 4.73l1.291 6.674c-12.155 4.65-28.376 1.62-28.376-14.19 0-21.074 30.121-23.36 30.121-1.095 0 1.682-.19 3.173-.32 3.88h-20.542z"/>
        <path fill="#E60033" d="M207.69.012h-6.665l6.676 12.065-6.676 12.065h6.665l6.753-12.065L207.69.012zm-87.764 20.772c0-8.709-11.75-8.826-11.663 0h11.663zm-11.73 6.736c.617 7.712 12.626 6.374 17.826 4.73l1.291 6.674c-12.155 4.65-28.376 1.62-28.376-14.19 0-21.074 30.121-23.36 30.121-1.095 0 1.682-.19 3.173-.32 3.88h-20.542zM30.538 20.826h7.994l2.359 9.042c.28 1.105.6 2.578.839 3.56h.16c.24-1.023.48-2.495.72-3.56l1.798-9.042h7.674l-4.197 12.766c-2.957 8.47-4.876 11.539-7.035 13.462-2.238 2.046-4.716 2.741-6.515 2.946l-1.479-6.22a9.715 9.715 0 0 0 2.439-.777c.918-.368 1.878-1.186 2.318-1.841.24-.287.399-.614.399-.9 0-.246-.08-.573-.28-1.105l-7.194-18.331zM.16 40.957V27.66c0-2.66-.08-4.992-.16-6.833h6.036l.28 2.496h.16c.718-.982 2.438-2.946 5.795-2.946 2.518 0 4.477 1.186 5.317 3.191h.08c.799-1.022 1.678-1.84 2.717-2.373 1-.532 2.159-.818 3.478-.818 4.237 0 6.675 3.15 6.675 8.715v11.866h-6.995V30.196c0-2.496-.72-3.928-2.319-3.928-1.158 0-1.878.778-2.198 1.718-.16.41-.2 1.064-.2 1.473v11.498h-6.994V29.992c0-2.25-.68-3.724-2.28-3.724-1.318 0-1.917.982-2.197 1.678-.2.45-.2.981-.2 1.473v11.538H.16z"/>
    </g>
</svg>
